<svg width="38" height="38" viewBox="0 0 38 38" fill="none" xmlns="http://www.w3.org/2000/svg">
<g clip-path="url(#clip0_36_73)">
<path d="M26.125 0C25.1676 0 24.2992 0.578906 23.9281 1.46953C23.557 2.36016 23.7648 3.37695 24.4402 4.05977L27.5129 7.125L14.9477 19.6977C14.0199 20.6254 14.0199 22.132 14.9477 23.0598C15.8754 23.9875 17.382 23.9875 18.3098 23.0598L30.875 10.4871L33.9477 13.5598C34.6305 14.2426 35.6473 14.443 36.5379 14.0719C37.4285 13.7008 38.0074 12.8398 38.0074 11.875V2.375C38.0074 1.06133 36.9461 0 35.6324 0H26.125ZM5.9375 2.375C2.65703 2.375 0 5.03203 0 8.3125V32.0625C0 35.343 2.65703 38 5.9375 38H29.6875C32.968 38 35.625 35.343 35.625 32.0625V23.75C35.625 22.4363 34.5637 21.375 33.25 21.375C31.9363 21.375 30.875 22.4363 30.875 23.75V32.0625C30.875 32.7156 30.3406 33.25 29.6875 33.25H5.9375C5.28438 33.25 4.75 32.7156 4.75 32.0625V8.3125C4.75 7.65938 5.28438 7.125 5.9375 7.125H14.25C15.5637 7.125 16.625 6.06367 16.625 4.75C16.625 3.43633 15.5637 2.375 14.25 2.375H5.9375Z" fill="black"/>
</g>
<defs>
<clipPath id="clip0_36_73">
<rect width="38" height="38" fill="white"/>
</clipPath>
</defs>
</svg>
